<svg width="24" height="24" viewBox="0 0 24 24" fill="none" xmlns="http://www.w3.org/2000/svg">
<g clip-path="url(#clip0)">
<path fill-rule="evenodd" clip-rule="evenodd" d="M5.22669 10.2777L4.63029 3.71726C4.53131 2.62843 4.95223 1.36085 6.19768 0.871604C7.31084 0.43432 9.13711 0 12 0C14.8629 0 16.6892 0.43432 17.8023 0.871603C19.0478 1.36085 19.4687 2.62843 19.3697 3.71726L18.7733 10.2777C19.6243 10.6127 20.25 11.4264 20.25 12.4025C20.25 13.3525 19.647 14.1795 18.7695 14.4527L19.4974 23.1878C19.5318 23.6005 19.2251 23.9631 18.8123 23.9975C18.3995 24.0318 18.037 23.7251 18.0026 23.3123L17.2825 14.6708C15.7878 14.8419 13.8939 15 12 15C10.1061 15 8.2122 14.8419 6.71753 14.6708L5.99741 23.3123C5.96301 23.7251 5.60049 24.0318 5.18771 23.9975C4.77493 23.9631 4.46819 23.6005 4.50259 23.1878L5.23051 14.4527C4.35297 14.1795 3.75 13.3525 3.75 12.4025C3.75 11.4264 4.37568 10.6127 5.22669 10.2777ZM6.74612 2.26774C7.65278 1.91158 9.28732 1.5 12 1.5C14.7127 1.5 16.3472 1.91158 17.2539 2.26774C17.6658 2.42956 17.9381 2.89691 17.8759 3.58145L17.2768 10.1715C15.783 10.3423 13.8915 10.5 12 10.5C10.1085 10.5 8.21701 10.3423 6.72322 10.1715L6.12413 3.58145C6.0619 2.89691 6.33419 2.42956 6.74612 2.26774ZM12 13.5C14.3247 13.5 16.6701 13.2511 18.2252 13.0421C18.5069 13.0042 18.75 12.756 18.75 12.4025C18.75 11.9691 18.3321 11.5563 17.8054 11.6197C16.2307 11.8093 14.1239 12 12 12C9.87606 12 7.76927 11.8093 6.19464 11.6197C5.66793 11.5563 5.25 11.9691 5.25 12.4025C5.25 12.756 5.49308 13.0042 5.77479 13.0421C7.32992 13.2511 9.67527 13.5 12 13.5Z" fill="#343840"/>
</g>
<defs>
<clipPath id="clip0">
<path d="M0 0H24V24H0V0Z" fill="white"/>
</clipPath>
</defs>
</svg>
