<?xml version="1.0" encoding="UTF-8"?>
<svg width="18px" height="26px" viewBox="0 0 18 26" version="1.1" xmlns="http://www.w3.org/2000/svg" xmlns:xlink="http://www.w3.org/1999/xlink">
    <!-- Generator: Sketch 52.5 (67469) - http://www.bohemiancoding.com/sketch -->
    <title>lightbulb</title>
    <desc>Created with Sketch.</desc>
    <g id="Page-1" stroke="none" stroke-width="1" fill="none" fill-rule="evenodd">
        <g id="lightbulb" fill="#4C4C4D" fill-rule="nonzero">
            <path d="M14.9,2.7 C13.3,1.1 11.2,0.3 9,0.3 C6.9,0.3 4.8,1.1 3.2,2.6 C1.6,4.1 0.7,6.1 0.6,8.3 C0.5,10.3 1.1,12.2 2.4,13.8 C3,14.6 3.5,15.3 3.9,16.1 L5.3,18.7 L5.3,22.1 C5.3,23 5.9,23.7 6.8,23.9 C7,24.9 8,25.7 9.1,25.7 C10.2,25.7 11.1,24.9 11.3,23.9 C12.2,23.8 13,23 13,22 L13,18.4 L14.1,16.2 C14.5,15.4 15.1,14.5 15.8,13.6 C16.9,12.1 17.5,10.4 17.5,8.5 C17.4,6.4 16.5,4.3 14.9,2.7 Z M9.4,18.1 L8.3,18.1 L8.3,11.7 L9.5,11.7 L9.4,18.1 Z M11.8,19.7 L6.3,19.7 L6.3,19.1 L11.8,19.1 C11.8,19.1 11.8,19.7 11.8,19.7 Z M6.3,21.4 L6.3,20.8 L11.8,20.8 L11.8,21.4 L6.3,21.4 Z M9,24.6 C8.5,24.6 8.1,24.3 7.9,23.9 L10.1,23.9 C9.9,24.3 9.5,24.6 9,24.6 Z M11,22.9 L7.1,22.9 C6.8,22.9 6.5,22.7 6.4,22.5 L11.7,22.5 C11.6,22.7 11.3,22.9 11,22.9 Z M14.8,13.1 C14.1,14.1 13.5,15 13,15.9 L11.9,18.1 L10.5,18.1 L10.5,11.7 L11,11.7 C11.8,11.7 12.3,11.3 12.5,11 C12.8,10.6 12.8,10.1 12.8,9.7 C12.8,8.5 11.8,8.1 10.9,8.1 C10.2,8.1 9.5,8.7 9.5,9.9 L9.5,10.6 L8.3,10.6 L8.3,9.9 C8.3,8.7 7.6,8.1 6.9,8.1 C6,8.1 5,8.5 5,9.7 C5,10 5,10.6 5.3,11 C5.5,11.3 5.9,11.7 6.8,11.7 L6.9,11.7 L7.3,11.7 L7.3,18.1 L6.1,18.1 L4.8,15.6 C4.4,14.8 3.9,14 3.2,13.2 C2.1,11.8 1.6,10.1 1.7,8.4 C1.9,4.6 5.1,1.4 9,1.4 C10.9,1.4 12.8,2.2 14.2,3.5 C15.6,4.9 16.3,6.7 16.3,8.7 C16.3,10.3 15.8,11.8 14.8,13.1 Z M10.6,10.6 L10.6,9.9 C10.6,9.9 10.6,9.2 11,9.2 C11.9,9.2 11.9,9.6 11.9,9.7 C11.9,10 11.9,10.2 11.8,10.4 C11.8,10.5 11.7,10.6 11.2,10.6 L10.6,10.6 Z M6.7,10.6 C6.3,10.6 6.2,10.4 6.1,10.4 C6,10.3 6,10.1 6,9.8 C6,9.6 6,9.3 6.9,9.3 C7.2,9.3 7.3,10 7.3,10 L7.3,10.7 L6.7,10.6 Z" id="Shape"></path>
        </g>
    </g>
</svg>
