<?xml version="1.0" encoding="UTF-8"?>
<svg width="20px" height="22px" viewBox="0 0 20 22" version="1.1" xmlns="http://www.w3.org/2000/svg" xmlns:xlink="http://www.w3.org/1999/xlink">
    <!-- Generator: Sketch 52.5 (67469) - http://www.bohemiancoding.com/sketch -->
    <title>sandbag</title>
    <desc>Created with Sketch.</desc>
    <g id="Page-1" stroke="none" stroke-width="1" fill="none" fill-rule="evenodd" stroke-linecap="round">
        <g id="sandbag" transform="translate(1.000000, 1.000000)" stroke="#4C4C4C" stroke-width="1.1">
            <path d="M14.2,1.2 C14.2,1.2 10.2,0 8.4,0 C5.9,0 3.3,1.1 3.3,1.1 C3.3,1.1 2.4,0.3 1.2,0.1 C0.7,0 0.4,0.2 0.3,0.6 C0.2,1.4 0.2,2.7 1.2,3.7 C0.7,5.3 0.6,7.6 0.6,10 C0.6,12.4 1.2,16.9 1.2,16.9 C1.2,16.9 0.4,18.3 0.5,19.5 C0.5,20.1 1.1,20.5 1.6,20.4 C2.7,20.2 3.2,19.6 3.2,19.6 C3.2,19.6 6.3,20.4 8.7,20.4 C11.1,20.4 14.2,19.8 14.2,19.8 C15.3,20.7 17.7,20.3 17.7,19.9 C17.8,19.1 17.8,17.8 16.8,16.8 C17.3,15.2 17.4,10.9 17.4,8.5 C17.4,6.1 16.8,3.6 16.8,3.6 C16.8,3.6 17.6,2.2 17.5,1 C17.5,0.4 16.9,-3.55271368e-15 16.4,0.1 C15.3,0.3 14.8,0.9 14.8,0.9 L14.2,1.2 Z" id="Path"></path>
            <path d="M12.6,13 L5.4,13 C4.6,13 3.9,12.3 3.9,11.5 L3.9,7.7 C3.9,6.9 4.6,6.2 5.4,6.2 L12.6,6.2 C13.4,6.2 14.1,6.9 14.1,7.7 L14.1,11.5 C14.1,12.3 13.4,13 12.6,13 Z" id="Path"></path>
            <path d="M6.1,8.7 L11.9,8.7" id="Path"></path>
            <path d="M7.2,10.6 L10.8,10.6" id="Path"></path>
        </g>
    </g>
</svg>
