<?xml version="1.0" encoding="UTF-8"?>
<svg width="22px" height="20px" viewBox="0 0 22 20" version="1.1" xmlns="http://www.w3.org/2000/svg" xmlns:xlink="http://www.w3.org/1999/xlink">
    <!-- Generator: Sketch 52.5 (67469) - http://www.bohemiancoding.com/sketch -->
    <title>sink</title>
    <desc>Created with Sketch.</desc>
    <g id="Page-1" stroke="none" stroke-width="1" fill="none" fill-rule="evenodd">
        <g id="sink" transform="translate(0.000000, 1.000000)">
            <path d="M2.3,10.1 L3.9,14.7 C4.1,15.1 4.5,15.4 4.9,15.4 L17.1,15.4 C17.6,15.4 18,15.1 18.1,14.7 L19.6,10.1" id="Path" stroke="#4C4C4C" stroke-width="1.1" stroke-linecap="round"></path>
            <path d="M19.9,10.1 L2.1,10.1 C1.3,10.1 0.6,9.4 0.6,8.6 C0.6,7.8 1.3,7.1 2.1,7.1 L19.9,7.1 C20.7,7.1 21.4,7.8 21.4,8.6 C21.4,9.4 20.8,10.1 19.9,10.1 Z" id="Path" stroke="#4C4C4C" stroke-width="1.1" stroke-linecap="round"></path>
            <path d="M9.6,15.8 L9.6,17.1 C9.6,17.6 10.2,18 11,18 C11.8,18 12.4,17.6 12.4,17.1 L12.4,15.8" id="Path" stroke="#4C4C4C" stroke-width="1.1" stroke-linecap="round"></path>
            <g id="Group" transform="translate(10.000000, 0.000000)">
                <path d="M0.4,7.1 L0.5,1.5 C0.5,1.5 0.6,0.2 1.8,0.2 C3.1,0.2 3.1,1.8 3.1,1.8" id="Path" stroke="#4C4C4C" stroke-width="1.1" stroke-linecap="round"></path>
                <circle id="Oval" fill="#4C4C4C" cx="3.5" cy="3.5" r="1"></circle>
                <circle id="Oval" fill="#4C4C4C" cx="3.5" cy="5.5" r="1"></circle>
            </g>
        </g>
    </g>
</svg>
