<?xml version="1.0" encoding="UTF-8"?>
<svg width="18px" height="25px" viewBox="0 0 18 25" version="1.1" xmlns="http://www.w3.org/2000/svg" xmlns:xlink="http://www.w3.org/1999/xlink">
    <!-- Generator: Sketch 52.5 (67469) - http://www.bohemiancoding.com/sketch -->
    <title>wardroberack</title>
    <desc>Created with Sketch.</desc>
    <g id="Page-1" stroke="none" stroke-width="1" fill="none" fill-rule="evenodd" stroke-linecap="round">
        <g id="wardroberack" stroke="#4C4C4C" stroke-width="1.1">
            <path d="M2,21.2 L2,4.7" id="Path"></path>
            <path d="M16.1,21.2 L16.1,4.7" id="Path"></path>
            <path d="M0.6,4.8 C2.6,4.1 5.5,3.4 8.8,3.4 C12.1,3.4 15.1,4.2 17.2,4.9" id="Path"></path>
            <path d="M0.7,7.7 L17.2,7.7" id="Path"></path>
            <path d="M0.7,10.6 L17.2,10.6" id="Path"></path>
            <path d="M0.7,13.6 L17.2,13.6" id="Path"></path>
            <path d="M8.8,1.6 L8.8,3.4" id="Path"></path>
            <path d="M8.7,21.4 L16.4,21.4 C16.9,21.4 17.4,21.8 17.4,22.2 L17.4,23.2 C17.4,23.6 17,24 16.4,24 L1.7,24 C1.2,24 0.7,23.6 0.7,23.2 L0.7,22.2 C0.7,21.8 1.1,21.4 1.7,21.4 L8.7,21.4" id="Path"></path>
            <path d="M6.9,1 L10.6,1" id="Path"></path>
        </g>
    </g>
</svg>
