<svg width="24" height="24" viewBox="0 0 24 24" fill="none" xmlns="http://www.w3.org/2000/svg">
<g clip-path="url(#clip0)">
<path fill-rule="evenodd" clip-rule="evenodd" d="M22.8009 16.5062C23.1888 16.3609 23.3855 15.9287 23.2402 15.5408C23.0949 15.1529 22.6627 14.9562 22.2748 15.1015L20.8701 15.6277L17.6475 7.02388C17.5023 6.63598 17.07 6.43931 16.6821 6.58459L15.9798 6.84766L14.9275 4.03826C14.7822 3.65036 14.35 3.45369 13.9621 3.59898L8.69446 5.57198C8.30657 5.71726 8.10989 6.1495 8.25518 6.53739L9.30745 9.34679L8.6051 9.60986L6.17173 3.11312C6.10196 2.92685 5.96105 2.77592 5.78 2.69354L2.40104 1.15604C2.02402 0.984494 1.57932 1.15106 1.40776 1.52808C1.23621 1.9051 1.40278 2.3498 1.7798 2.52135L4.87599 3.93018L7.46346 10.8383L9.92998 17.4236C8.83508 18.1893 8.35174 19.6246 8.84205 20.9337C9.4232 22.4853 11.1521 23.272 12.7037 22.6908C14.0128 22.2005 14.7774 20.8932 14.6354 19.5647L20.6939 17.2954L22.8009 16.5062ZM11.3347 16.8975C12.4171 16.7818 13.4854 17.2679 14.1093 18.16L19.4654 16.1538L16.5059 8.25236L15.8036 8.51543L10.5359 10.4884L9.13123 11.0146L11.3347 16.8975ZM13.7859 5.26674L14.5751 7.37379L10.7121 8.82066L9.92295 6.71361L13.7859 5.26674ZM10.2468 20.4076C9.95617 19.6318 10.3495 18.7673 11.1253 18.4767C11.9011 18.1861 12.7656 18.5795 13.0562 19.3553C13.3467 20.1311 12.9534 20.9955 12.1776 21.2861C11.4018 21.5767 10.5373 21.1833 10.2468 20.4076Z" fill="#343840"/>
</g>
<defs>
<clipPath id="clip0">
<rect width="24" height="24" fill="white"/>
</clipPath>
</defs>
</svg>
