<svg width="24" height="24" viewBox="0 0 24 24" fill="none" xmlns="http://www.w3.org/2000/svg">
<path fill-rule="evenodd" clip-rule="evenodd" d="M5.14342 5.03487C4.84153 5.48771 5.10732 6.10122 5.64416 6.19069L7.1199 6.43665C8.20482 6.61747 9 7.55615 9 8.65604V9.69722C9 10.1988 8.74935 10.6671 8.33205 10.9453L6.16987 12.3868C5.12663 13.0822 4.5 14.2531 4.5 15.5069V19.5C4.5 21.1569 5.84315 22.5 7.5 22.5H16.5C18.1569 22.5 19.5 21.1569 19.5 19.5V16.1798C19.5 14.9688 18.9151 13.8322 17.9296 13.1283L14.8781 10.9487C14.4839 10.6671 14.25 10.2125 14.25 9.72807V8.70142C14.25 8.03493 14.5417 7.42882 15.0116 7.01395C15.019 7.21891 15.0311 7.41925 15.0508 7.61168C15.1025 8.11586 15.212 8.63274 15.4738 9.09085C16.0488 10.0971 17.149 10.5 18.75 10.5C19.1642 10.5 19.5 10.1642 19.5 9.75C19.5 9.33579 19.1642 9 18.75 9C17.351 9 16.9512 8.65288 16.7762 8.34665C16.663 8.14851 16.585 7.86852 16.543 7.45863C16.5118 7.15454 16.5032 6.81594 16.5009 6.42845L18.8561 6.09199C19.2256 6.03921 19.5 5.72277 19.5 5.34953V2.25C19.5 1.83579 19.1642 1.5 18.75 1.5H9.10555C8.10249 1.5 7.1658 2.0013 6.6094 2.8359L5.14342 5.03487ZM6 16.5H14.25C14.6642 16.5 15 16.1642 15 15.75C15 15.3358 14.6642 15 14.25 15H6.05781C6.18562 14.4474 6.51954 13.9564 7.00192 13.6348L9.1641 12.1934C9.9987 11.637 10.5 10.7003 10.5 9.69722V9H12.75V9.72807C12.75 10.6969 13.2179 11.6061 14.0063 12.1693L17.0578 14.3489C17.6491 14.7713 18 15.4532 18 16.1798V19.5C18 20.3284 17.3284 21 16.5 21H7.5C6.67157 21 6 20.3284 6 19.5V16.5ZM18 3H16.5V4.91334L18 4.69906V3ZM9.10555 3H15V5.26387C14.0302 5.6868 13.2842 6.50331 12.9471 7.5H10.3179C9.89592 6.19784 8.77843 5.19238 7.3665 4.95706L7.03491 4.90179L7.85748 3.66795C8.13567 3.25065 8.60402 3 9.10555 3Z" fill="#343840"/>
</svg>
