<svg width="24" height="24" viewBox="0 0 24 24" fill="none" xmlns="http://www.w3.org/2000/svg">
<g clip-path="url(#clip0)">
<path fill-rule="evenodd" clip-rule="evenodd" d="M6.93816 3.19942C6.7929 2.81152 6.36068 2.61482 5.97277 2.76008C5.58486 2.90534 5.38816 3.33756 5.53343 3.72547L6.98006 7.58848L6.27769 7.85151L4.87296 8.37755C4.48505 8.52282 4.28835 8.95504 4.43361 9.34294C4.57888 9.73085 5.0111 9.92755 5.399 9.78229L6.10137 9.51926L7.02195 11.9775C7.87672 14.2601 10.2601 15.5241 12.5745 15.0426L12.8248 15.7109C13.3513 17.117 14.9181 17.8301 16.3243 17.3035L16.6755 17.172C17.1119 17.0086 17.5981 17.2298 17.7615 17.6662C17.925 18.1026 17.7037 18.5889 17.2673 18.7523L16.9161 18.8838C15.5099 19.4104 14.7969 20.9772 15.3235 22.3834L15.3564 22.4711C15.5016 22.8591 15.9338 23.0558 16.3218 22.9105C16.7097 22.7652 16.9064 22.333 16.7611 21.9451L16.7282 21.8573C16.4922 21.227 16.8118 20.5246 17.4422 20.2885L17.7933 20.157C19.0055 19.7031 19.6202 18.3524 19.1663 17.1402C18.7123 15.928 17.3616 15.3133 16.1494 15.7672L15.7983 15.8988C15.1679 16.1348 14.4655 15.8152 14.2295 15.1848L13.9792 14.5166C16.0407 13.3594 17.0075 10.8408 16.1527 8.55824L15.2321 6.09996L15.9345 5.83694C16.3224 5.69167 16.5191 5.25945 16.3738 4.87155C16.2286 4.48364 15.7964 4.28694 15.4085 4.4322L14.0037 4.95825L13.3014 5.22127L11.8547 1.35826C11.7095 0.970353 11.2772 0.773652 10.8893 0.918916C10.5014 1.06418 10.3047 1.4964 10.45 1.88431L11.8966 5.74732L8.38479 7.06244L6.93816 3.19942ZM12.7709 13.4285C14.5165 12.7749 15.4017 10.8299 14.748 9.08429L13.8274 6.62601L13.125 6.88903L8.20847 8.73019L7.5061 8.99322L8.42668 11.4515C9.08037 13.1971 11.0254 14.0822 12.7709 13.4285Z" fill="#343840"/>
</g>
<defs>
<clipPath id="clip0">
<rect width="24" height="24" fill="white"/>
</clipPath>
</defs>
</svg>
