<svg width="24" height="24" viewBox="0 0 24 24" fill="none" xmlns="http://www.w3.org/2000/svg">
    <path fill-rule="evenodd" clip-rule="evenodd" d="M12.5803 0.524822C12.4378 0.350878 12.2249 0.25001 12 0.25C11.7752 0.24999 11.5622 0.35084 11.4198 0.524773C10.5915 1.53607 9.36455 2.61375 7.98674 3.48868C6.60471 4.3663 5.12415 5.00613 3.79497 5.19853C2.99502 5.31433 2.25 5.98016 2.25 6.91425C2.25 12.3657 4.60832 17.5506 8.71733 21.133L11.5071 23.5653C11.7896 23.8116 12.2104 23.8116 12.4929 23.5653L15.2827 21.133C19.3917 17.5505 21.75 12.3657 21.75 6.91425C21.75 5.98073 21.0069 5.31665 20.2129 5.19434C18.9659 5.00226 17.5075 4.39305 16.1154 3.53203C14.7276 2.67367 13.4591 1.59805 12.5803 0.524822ZM4.00985 6.68306C5.61866 6.45018 7.30135 5.70081 8.79084 4.75495C10.0007 3.98665 11.1182 3.06645 12.0002 2.13279C12.9317 3.1169 14.0956 4.04651 15.3263 4.80774C16.8241 5.73413 18.4746 6.44427 19.9845 6.67685C20.0686 6.6898 20.1421 6.73088 20.1903 6.78171C20.2357 6.82971 20.25 6.87537 20.25 6.91425C20.25 11.9322 18.0792 16.7048 14.2969 20.0024L12 22.005L9.70307 20.0024C5.92079 16.7048 3.75 11.9322 3.75 6.91425C3.75 6.87555 3.76418 6.83076 3.80862 6.7841C3.85572 6.73466 3.9276 6.69497 4.00985 6.68306ZM12.25 16.5C11.8358 16.5 11.5 16.1642 11.5 15.75L11.5 13L8.75 13C8.33579 13 8 12.6642 8 12.25C8 11.8358 8.33578 11.5 8.75 11.5L11.5 11.5L11.5 8.75C11.5 8.33578 11.8358 8 12.25 8C12.6642 8 13 8.33579 13 8.75L13 11.5L15.75 11.5C16.1642 11.5 16.5 11.8358 16.5 12.25C16.5 12.6642 16.1642 13 15.75 13L13 13L13 15.75C13 16.1642 12.6642 16.5 12.25 16.5Z" fill="black"/>
</svg>
