<svg width="24" height="24" viewBox="0 0 24 24" fill="none" xmlns="http://www.w3.org/2000/svg">
<path fill-rule="evenodd" clip-rule="evenodd" d="M12 4.125C11.5858 4.125 11.25 3.78921 11.25 3.375V0.75C11.25 0.335786 11.5858 0 12 0C12.4142 0 12.75 0.335786 12.75 0.75V3.375C12.75 3.78921 12.4142 4.125 12 4.125ZM12 16.5C14.4853 16.5 16.5 14.4853 16.5 12C16.5 9.51472 14.4853 7.5 12 7.5C9.51472 7.5 7.5 9.51472 7.5 12C7.5 14.4853 9.51472 16.5 12 16.5ZM12 18C15.3137 18 18 15.3137 18 12C18 8.68629 15.3137 6 12 6C8.68629 6 6 8.68629 6 12C6 15.3137 8.68629 18 12 18ZM11.25 23.25C11.25 23.6642 11.5858 24 12 24C12.4142 24 12.75 23.6642 12.75 23.25V20.625C12.75 20.2108 12.4142 19.875 12 19.875C11.5858 19.875 11.25 20.2108 11.25 20.625V23.25ZM4.125 12C4.125 12.4142 3.78921 12.75 3.375 12.75H0.75C0.335787 12.75 0 12.4142 0 12C0 11.5858 0.335786 11.25 0.75 11.25H3.375C3.78921 11.25 4.125 11.5858 4.125 12ZM23.25 12.75C23.6642 12.75 24 12.4142 24 12C24 11.5858 23.6642 11.25 23.25 11.25H20.625C20.2108 11.25 19.875 11.5858 19.875 12C19.875 12.4142 20.2108 12.75 20.625 12.75H23.25ZM6.51149 6.44715C6.21859 6.74004 5.74372 6.74004 5.45083 6.44715L3.59467 4.59099C3.30178 4.2981 3.30178 3.82322 3.59467 3.53033C3.88756 3.23744 4.36244 3.23744 4.65533 3.53033L6.51149 5.38649C6.80438 5.67938 6.80438 6.15425 6.51149 6.44715ZM19.5046 20.5009C19.7975 20.7938 20.2723 20.7938 20.5652 20.5009C20.8581 20.208 20.8581 19.7331 20.5652 19.4402L18.7091 17.5841C18.4162 17.2912 17.9413 17.2912 17.6484 17.5841C17.3555 17.877 17.3555 18.3518 17.6484 18.6447L19.5046 20.5009ZM6.44715 17.2091C6.74004 17.502 6.74004 17.9768 6.44715 18.2697L4.59099 20.1259C4.2981 20.4188 3.82322 20.4188 3.53033 20.1259C3.23744 19.833 3.23744 19.3581 3.53033 19.0652L5.38649 17.2091C5.67938 16.9162 6.15425 16.9162 6.44715 17.2091ZM20.5009 4.21599C20.7938 3.9231 20.7938 3.44822 20.5009 3.15533C20.208 2.86244 19.7331 2.86244 19.4402 3.15533L17.5841 5.01149C17.2912 5.30438 17.2912 5.77925 17.5841 6.07215C17.877 6.36504 18.3518 6.36504 18.6447 6.07215L20.5009 4.21599Z" fill="#343840"/>
</svg>
