<svg width="24" height="24" viewBox="0 0 24 24" fill="none" xmlns="http://www.w3.org/2000/svg">
<path d="M12 10.5C10.6296 10.5 9.6187 10.8417 8.96042 11.1708C8.63005 11.336 8.38691 11.4989 8.23126 11.6156C8.15348 11.674 8.09778 11.7206 8.0642 11.75C8.04742 11.7647 8.0362 11.775 8.03054 11.7803L8.0263 11.7843C7.89091 11.9177 7.70506 12 7.5 12C7.08579 12 6.75 11.6642 6.75 11.25C6.75 11.0389 6.83726 10.8481 6.97767 10.7118L6.98256 10.707C6.98838 10.7014 6.99574 10.6943 7.00463 10.686C7.02241 10.6693 7.04635 10.6474 7.07644 10.6211C7.13661 10.5685 7.22153 10.4979 7.33126 10.4156C7.55061 10.2511 7.86997 10.039 8.2896 9.82918C9.13132 9.40832 10.3704 9 12 9C13.6296 9 14.8687 9.40832 15.7104 9.82918C16.13 10.039 16.4494 10.2511 16.6688 10.4156C16.7785 10.4979 16.8634 10.5685 16.9236 10.6211C16.9537 10.6474 16.9776 10.6693 16.9954 10.686L17.0094 10.6992L17.0175 10.707L17.0223 10.7118C17.1628 10.8481 17.25 11.0389 17.25 11.25C17.25 11.6642 16.9142 12 16.5 12C16.295 12 16.1091 11.9177 15.9737 11.7843L15.9695 11.7803C15.9638 11.775 15.9526 11.7647 15.9358 11.75C15.9022 11.7206 15.8465 11.674 15.7688 11.6156C15.6131 11.4989 15.37 11.336 15.0396 11.1708C14.3813 10.8417 13.3704 10.5 12 10.5Z" fill="#343840"/>
<path fill-rule="evenodd" clip-rule="evenodd" d="M19.5 7.5C18 7.5 16.875 6.9375 15.75 6.375C14.625 5.8125 13.5 5.25 12 5.25C10.5 5.25 9.375 5.8125 8.25 6.375C7.125 6.9375 6 7.5 4.5 7.5C3.64533 7.5 2.53188 7.71046 1.6125 8.4C0.65678 9.11679 0 10.2858 0 12C0 13.7141 0.656779 14.8832 1.6125 15.6C2.53188 16.2895 3.64533 16.5 4.5 16.5C4.5 16.5 7.5 19.5 12 19.5C16.5 19.5 19.5 16.5 19.5 16.5C20.3547 16.5 21.4681 16.2895 22.3875 15.6C23.3432 14.8832 24 13.7141 24 12C24 10.2858 23.3432 9.11679 22.3875 8.4C21.4681 7.71046 20.3547 7.5 19.5 7.5ZM2.5125 9.6C2.97663 9.2519 3.55637 9.07693 4.09994 9.02073C3.92116 9.85029 3.75 10.9251 3.75 12C3.75 13.0749 3.92116 14.1497 4.09994 14.9793C3.55637 14.9231 2.97663 14.7481 2.5125 14.4C1.96822 13.9918 1.5 13.2858 1.5 12C1.5 10.7142 1.96822 10.0082 2.5125 9.6ZM21.4875 14.4C21.0234 14.7481 20.4436 14.9231 19.9001 14.9793C20.0788 14.1497 20.25 13.0749 20.25 12C20.25 10.9251 20.0788 9.85029 19.9001 9.02073C20.4436 9.07693 21.0234 9.2519 21.4875 9.6C22.0318 10.0082 22.5 10.7142 22.5 12C22.5 13.2858 22.0318 13.9918 21.4875 14.4ZM5.55665 15.4353C5.55599 15.4347 5.55592 15.4346 5.55665 15.4353ZM5.81486 15.6652C5.75247 15.4446 5.67097 15.136 5.58928 14.7684C5.41432 13.981 5.25 12.9738 5.25 12C5.25 11.0262 5.41432 10.019 5.58928 9.23165C5.61468 9.11736 5.64006 9.00877 5.66485 8.90676C6.95896 8.69835 7.99584 8.17949 8.85022 7.75196L8.92082 7.71664C10.0636 7.14523 10.8962 6.75 12 6.75C13.1038 6.75 13.9364 7.14523 15.0792 7.71664L15.1498 7.75196C16.0042 8.17949 17.041 8.69835 18.3352 8.90676C18.3599 9.00877 18.3853 9.11736 18.4107 9.23165C18.5857 10.019 18.75 11.0262 18.75 12C18.75 12.9738 18.5857 13.981 18.4107 14.7684C18.329 15.136 18.2475 15.4446 18.1851 15.6652C18.1376 15.7052 18.0838 15.7495 18.0239 15.7974C17.722 16.039 17.2706 16.3677 16.6933 16.6976C15.5324 17.361 13.9143 18 12 18C10.0857 18 8.46761 17.361 7.30671 16.6976C6.72938 16.3677 6.27801 16.039 5.97611 15.7974C5.91619 15.7495 5.86238 15.7052 5.81486 15.6652Z" fill="#343840"/>
</svg>
