<svg width="24" height="24" viewBox="0 0 24 24" fill="none" xmlns="http://www.w3.org/2000/svg">
<path fill-rule="evenodd" clip-rule="evenodd" d="M18.75 3H5.25C4.83579 3 4.5 3.33579 4.5 3.75V20.25C4.5 20.6642 4.83579 21 5.25 21H18.75C19.1642 21 19.5 20.6642 19.5 20.25V3.75C19.5 3.33579 19.1642 3 18.75 3ZM5.25 1.5C4.00736 1.5 3 2.50736 3 3.75V20.25C3 21.4926 4.00736 22.5 5.25 22.5H18.75C19.9926 22.5 21 21.4926 21 20.25V3.75C21 2.50736 19.9926 1.5 18.75 1.5H5.25ZM9 17.25V12.75V11.25V8.25V6.75H10.5H12.75C14.4069 6.75 15.75 8.09315 15.75 9.75C15.75 11.4069 14.4069 12.75 12.75 12.75H10.5V17.25H9ZM10.5 11.25H12.75C13.5784 11.25 14.25 10.5784 14.25 9.75C14.25 8.92157 13.5784 8.25 12.75 8.25H10.5V11.25Z" fill="#343840"/>
</svg>
