<svg width="24" height="24" viewBox="0 0 24 24" fill="none" xmlns="http://www.w3.org/2000/svg">
<path fill-rule="evenodd" clip-rule="evenodd" d="M6 0H0.75C0.551088 0 0.360322 0.0790176 0.21967 0.21967C0.0790175 0.360322 0 0.551088 0 0.75V6H1.5V2.56066L4.71967 5.78033L5.78033 4.71967L2.56066 1.5H6V0Z" fill="#343840"/>
<path fill-rule="evenodd" clip-rule="evenodd" d="M6 24H0.75C0.551088 24 0.360322 23.921 0.21967 23.7803C0.0790175 23.6397 0 23.4489 0 23.25V18H1.5V21.4393L4.71967 18.2197L5.78033 19.2803L2.56066 22.5H6V24Z" fill="#343840"/>
<path fill-rule="evenodd" clip-rule="evenodd" d="M18 0H23.25C23.4489 0 23.6397 0.0790176 23.7803 0.21967C23.921 0.360322 24 0.551088 24 0.75V6H22.5V2.56066L19.2803 5.78033L18.2197 4.71967L21.4393 1.5H18V0Z" fill="#343840"/>
<path fill-rule="evenodd" clip-rule="evenodd" d="M18 24H23.25C23.4489 24 23.6397 23.921 23.7803 23.7803C23.921 23.6397 24 23.4489 24 23.25V18H22.5V21.4393L19.2803 18.2197L18.2197 19.2803L21.4393 22.5H18V24Z" fill="#343840"/>
<path fill-rule="evenodd" clip-rule="evenodd" d="M8.12287 12.9964C9.07441 12.3915 10.3386 12 12 12C13.6614 12 14.9256 12.3915 15.8771 12.9964C16.8265 13.5999 17.4191 14.3867 17.7857 15.1084C18.1678 15.8607 18.01 16.634 17.5457 17.1805C17.1033 17.7011 16.4077 18 15.6762 18H8.32378C7.59229 18 6.89671 17.7011 6.45435 17.1805C5.99001 16.634 5.83219 15.8607 6.2143 15.1084C6.58085 14.3867 7.17353 13.5999 8.12287 12.9964ZM8.92757 14.2623C8.24734 14.6947 7.82129 15.2569 7.55168 15.7877C7.46535 15.9576 7.49216 16.0853 7.59745 16.2092C7.72471 16.359 7.98375 16.5 8.32378 16.5H15.6762C16.0163 16.5 16.2753 16.359 16.4026 16.2092C16.5078 16.0853 16.5346 15.9576 16.4483 15.7877C16.1787 15.2569 15.7527 14.6947 15.0724 14.2623C14.3944 13.8313 13.4181 13.5 12 13.5C10.5819 13.5 9.60561 13.8313 8.92757 14.2623Z" fill="#343840"/>
<path fill-rule="evenodd" clip-rule="evenodd" d="M12 9.75C13.2426 9.75 14.25 8.74264 14.25 7.5C14.25 6.25736 13.2426 5.25 12 5.25C10.7574 5.25 9.75 6.25736 9.75 7.5C9.75 8.74264 10.7574 9.75 12 9.75ZM12 11.25C14.0711 11.25 15.75 9.57107 15.75 7.5C15.75 5.42893 14.0711 3.75 12 3.75C9.92893 3.75 8.25 5.42893 8.25 7.5C8.25 9.57107 9.92893 11.25 12 11.25Z" fill="#343840"/>
</svg>
