<svg width="24" height="24" viewBox="0 0 24 24" fill="none" xmlns="http://www.w3.org/2000/svg">
<path fill-rule="evenodd" clip-rule="evenodd" d="M5.25 4.5C5.25 3.67157 5.92157 3 6.75 3H13.2955V6.69643C13.2955 7.73196 14.1349 8.57143 15.1705 8.57143H18.75V18.6161V19.5C18.75 20.3284 18.0784 21 17.25 21H6.75C5.92157 21 5.25 20.3284 5.25 19.5V4.5ZM17.7161 7.07143L14.7955 4.08816V6.69643C14.7955 6.90354 14.9633 7.07143 15.1705 7.07143H17.7161ZM6.75 1.5C5.09315 1.5 3.75 2.84315 3.75 4.5V19.5C3.75 21.1569 5.09315 22.5 6.75 22.5H17.25C18.9069 22.5 20.25 21.1569 20.25 19.5V18.6161V7.82143V7.51542L20.0359 7.29675L14.5814 1.72532L14.3608 1.5H14.0455H6.75ZM7.5 10.5C7.08579 10.5 6.75 10.8358 6.75 11.25C6.75 11.6642 7.08579 12 7.5 12L16.5 12C16.9142 12 17.25 11.6642 17.25 11.25C17.25 10.8358 16.9142 10.5 16.5 10.5L7.5 10.5ZM6.75 14.25C6.75 13.8358 7.08579 13.5 7.5 13.5L16.5 13.5C16.9142 13.5 17.25 13.8358 17.25 14.25C17.25 14.6642 16.9142 15 16.5 15L7.5 15C7.08579 15 6.75 14.6642 6.75 14.25ZM7.5 16.5C7.08579 16.5 6.75 16.8358 6.75 17.25C6.75 17.6642 7.08579 18 7.5 18L16.5 18C16.9142 18 17.25 17.6642 17.25 17.25C17.25 16.8358 16.9142 16.5 16.5 16.5L7.5 16.5Z" fill="#343840"/>
</svg>
