<svg width="24" height="24" viewBox="0 0 24 24" fill="none" xmlns="http://www.w3.org/2000/svg">
<path fill-rule="evenodd" clip-rule="evenodd" d="M19.5 3H4.5L4.5 21H19.5V3ZM4.5 1.5C3.67157 1.5 3 2.17157 3 3V21C3 21.8284 3.67157 22.5 4.5 22.5H19.5C20.3284 22.5 21 21.8284 21 21V3C21 2.17157 20.3284 1.5 19.5 1.5H4.5Z" fill="#343840"/>
<path d="M6 6.75C6 6.33579 6.33579 6 6.75 6H17.25C17.6642 6 18 6.33579 18 6.75C18 7.16421 17.6642 7.5 17.25 7.5H6.75C6.33579 7.5 6 7.16421 6 6.75Z" fill="#343840"/>
<path d="M6 9.75C6 9.33579 6.33579 9 6.75 9H14.25C14.6642 9 15 9.33579 15 9.75C15 10.1642 14.6642 10.5 14.25 10.5H6.75C6.33579 10.5 6 10.1642 6 9.75Z" fill="#343840"/>
<path d="M6 12.75C6 12.3358 6.33579 12 6.75 12H14.25C14.6642 12 15 12.3358 15 12.75C15 13.1642 14.6642 13.5 14.25 13.5H6.75C6.33579 13.5 6 13.1642 6 12.75Z" fill="#343840"/>
</svg>
