<svg width="24" height="24" viewBox="0 0 24 24" fill="none" xmlns="http://www.w3.org/2000/svg">
<path fill-rule="evenodd" clip-rule="evenodd" d="M15 12V4.5C15 2.84315 13.6569 1.5 12 1.5C10.3431 1.5 9 2.84315 9 4.5V12C9 13.6569 10.3431 15 12 15C13.6569 15 15 13.6569 15 12ZM12 0C9.51472 0 7.5 2.01472 7.5 4.5V12C7.5 14.4853 9.51472 16.5 12 16.5C14.4853 16.5 16.5 14.4853 16.5 12V4.5C16.5 2.01472 14.4853 0 12 0ZM12.7789 19.0829C16.3475 18.6949 19.125 15.6718 19.125 12V11.25C19.125 10.8358 18.7892 10.5 18.375 10.5C17.9608 10.5 17.625 10.8358 17.625 11.25V12C17.625 15.1066 15.1066 17.625 12 17.625C8.8934 17.625 6.375 15.1066 6.375 12V11.25C6.375 10.8358 6.03921 10.5 5.625 10.5C5.21079 10.5 4.875 10.8358 4.875 11.25V12C4.875 15.6916 7.68253 18.7275 11.2789 19.089V22.5H7.37151C6.95729 22.5 6.62151 22.8358 6.62151 23.25C6.62151 23.6642 6.95729 24 7.37151 24H12.0289H16.6863C17.1005 24 17.4363 23.6642 17.4363 23.25C17.4363 22.8358 17.1005 22.5 16.6863 22.5H12.7789V19.0829Z" fill="#343840"/>
</svg>
