<?xml version="1.0" encoding="UTF-8"?>
<svg width="17px" height="20px" viewBox="0 0 17 20" version="1.1" xmlns="http://www.w3.org/2000/svg" xmlns:xlink="http://www.w3.org/1999/xlink">
    <!-- Generator: Sketch 52.5 (67469) - http://www.bohemiancoding.com/sketch -->
    <title>elevator</title>
    <desc>Created with Sketch.</desc>
    <g id="Page-1" stroke="none" stroke-width="1" fill="none" fill-rule="evenodd" stroke-linecap="round">
        <g id="elevator" transform="translate(1.000000, 0.000000)" stroke="#4C4C4C" stroke-width="1.1">
            <path d="M14.8,19.4 L1.2,19.4 C0.8,19.4 0.5,19.1 0.5,18.7 L0.5,5.2 C0.5,4.8 0.8,4.5 1.2,4.5 L14.7,4.5 C15.1,4.5 15.4,4.8 15.4,5.2 L15.4,18.7 C15.4,19.1 15.1,19.4 14.8,19.4 Z" id="Path"></path>
            <path d="M8,4.7 L8,19.4" id="Path"></path>
            <path d="M9.9,2.8 L6.1,2.8 C5.7,2.8 5.4,2.5 5.4,2.1 L5.4,1.4 C5.4,1 5.7,0.7 6.1,0.7 L9.9,0.7 C10.3,0.7 10.6,1 10.6,1.4 L10.6,2 C10.6,2.4 10.3,2.8 9.9,2.8 Z" id="Path"></path>
        </g>
    </g>
</svg>
