<?xml version="1.0" encoding="UTF-8"?>
<svg width="22px" height="22px" viewBox="0 0 22 22" version="1.1" xmlns="http://www.w3.org/2000/svg" xmlns:xlink="http://www.w3.org/1999/xlink">
    <!-- Generator: Sketch 52.5 (67469) - http://www.bohemiancoding.com/sketch -->
    <title>skylight</title>
    <desc>Created with Sketch.</desc>
    <g id="Page-1" stroke="none" stroke-width="1" fill="none" fill-rule="evenodd" stroke-linecap="round">
        <g id="skylight" transform="translate(1.000000, 1.000000)" stroke="#4C4C4C" stroke-width="1.1">
            <path d="M18.1,19.5 L1.9,19.5 C1.1,19.5 0.5,18.9 0.5,18.1 L0.5,1.9 C0.5,1.1 1.1,0.5 1.9,0.5 L18.2,0.5 C19,0.5 19.6,1.1 19.6,1.9 L19.6,18.2 C19.5,18.9 18.9,19.5 18.1,19.5 Z" id="Path"></path>
            <path d="M10,0.5 L10,19.5" id="Path"></path>
            <path d="M19.5,10 L0.5,10" id="Path"></path>
            <path d="M12,6.5 L13,7.5" id="Path"></path>
            <path d="M12,16.5 L13,17.5" id="Path"></path>
            <path d="M3,6.5 L4,7.5" id="Path"></path>
            <path d="M3,16.5 L4,17.5" id="Path"></path>
        </g>
    </g>
</svg>
